<svg width="172" height="56" viewBox="0 0 172 56" fill="none" xmlns="http://www.w3.org/2000/svg">
<path d="M74.5864 23.1522C74.4818 22.7883 74.3347 22.4668 74.1453 22.1877C73.9559 21.9036 73.7241 21.6643 73.45 21.4699C73.1808 21.2706 72.8718 21.1185 72.5228 21.0139C72.1789 20.9092 71.7976 20.8569 71.3789 20.8569C70.5963 20.8569 69.9085 21.0513 69.3153 21.44C68.7272 21.8288 68.2686 22.3946 67.9396 23.1373C67.6106 23.875 67.4462 24.7772 67.4462 25.8438C67.4462 26.9105 67.6081 27.8177 67.9321 28.5654C68.2561 29.313 68.7147 29.8838 69.3079 30.2775C69.901 30.6663 70.6013 30.8607 71.4088 30.8607C72.1415 30.8607 72.7671 30.7311 73.2855 30.4719C73.8088 30.2077 74.2076 29.8364 74.4818 29.3579C74.7609 28.8794 74.9004 28.3136 74.9004 27.6607L75.5584 27.7579H71.6107V25.3205H78.0182V27.2495C78.0182 28.5953 77.7341 29.7517 77.1659 30.7187C76.5977 31.6807 75.8151 32.4234 74.8182 32.9467C73.8213 33.4651 72.6799 33.7243 71.3939 33.7243C69.9583 33.7243 68.6973 33.4078 67.6106 32.7748C66.524 32.1367 65.6767 31.2321 65.0686 30.0607C64.4654 28.8844 64.1639 27.4887 64.1639 25.8737C64.1639 24.6326 64.3433 23.526 64.7022 22.5541C65.0661 21.5771 65.5745 20.7497 66.2274 20.0718C66.8804 19.3939 67.6405 18.878 68.5078 18.5241C69.3751 18.1702 70.3147 17.9933 71.3266 17.9933C72.1939 17.9933 73.0014 18.1204 73.749 18.3746C74.4967 18.6238 75.1596 18.9777 75.7378 19.4363C76.321 19.8948 76.797 20.4407 77.1659 21.0737C77.5347 21.7017 77.7715 22.3946 77.8762 23.1522H74.5864ZM85.5791 33.7393C84.4177 33.7393 83.4133 33.4925 82.566 32.9991C81.7236 32.5006 81.0731 31.8078 80.6145 30.9205C80.156 30.0283 79.9267 28.994 79.9267 27.8177C79.9267 26.6314 80.156 25.5946 80.6145 24.7074C81.0731 23.8151 81.7236 23.1223 82.566 22.6288C83.4133 22.1304 84.4177 21.8812 85.5791 21.8812C86.7405 21.8812 87.7423 22.1304 88.5847 22.6288C89.4321 23.1223 90.0851 23.8151 90.5436 24.7074C91.0022 25.5946 91.2315 26.6314 91.2315 27.8177C91.2315 28.994 91.0022 30.0283 90.5436 30.9205C90.0851 31.8078 89.4321 32.5006 88.5847 32.9991C87.7423 33.4925 86.7405 33.7393 85.5791 33.7393ZM85.594 31.2719C86.1224 31.2719 86.5635 31.1224 86.9174 30.8233C87.2713 30.5193 87.538 30.1056 87.7174 29.5822C87.9019 29.0588 87.9941 28.4632 87.9941 27.7953C87.9941 27.1273 87.9019 26.5317 87.7174 26.0083C87.538 25.4849 87.2713 25.0712 86.9174 24.7672C86.5635 24.4631 86.1224 24.3111 85.594 24.3111C85.0607 24.3111 84.6121 24.4631 84.2482 24.7672C83.8893 25.0712 83.6177 25.4849 83.4333 26.0083C83.2538 26.5317 83.1641 27.1273 83.1641 27.7953C83.1641 28.4632 83.2538 29.0588 83.4333 29.5822C83.6177 30.1056 83.8893 30.5193 84.2482 30.8233C84.6121 31.1224 85.0607 31.2719 85.594 31.2719Z" fill="#71C90C"/>
<path d="M106.02 23.1522C105.915 22.7883 105.768 22.4668 105.579 22.1877C105.389 21.9036 105.158 21.6643 104.883 21.4699C104.614 21.2706 104.305 21.1185 103.956 21.0139C103.612 20.9092 103.231 20.8569 102.812 20.8569C102.03 20.8569 101.342 21.0513 100.749 21.44C100.161 21.8288 99.7021 22.3946 99.3731 23.1373C99.0441 23.875 98.8796 24.7772 98.8796 25.8438C98.8796 26.9105 99.0416 27.8177 99.3656 28.5654C99.6896 29.313 100.148 29.8838 100.741 30.2775C101.334 30.6663 102.035 30.8607 102.842 30.8607C103.575 30.8607 104.201 30.7311 104.719 30.4719C105.242 30.2077 105.641 29.8364 105.915 29.3579C106.194 28.8794 106.334 28.3136 106.334 27.6607L106.992 27.7579H103.044V25.3205H109.452V27.2495C109.452 28.5953 109.168 29.7517 108.599 30.7187C108.031 31.6807 107.249 32.4234 106.252 32.9467C105.255 33.4651 104.113 33.7243 102.827 33.7243C101.392 33.7243 100.131 33.4078 99.0441 32.7748C97.9575 32.1367 97.1101 31.2321 96.502 30.0607C95.8989 28.8844 95.5973 27.4887 95.5973 25.8737C95.5973 24.6326 95.7768 23.526 96.1357 22.5541C96.4995 21.5771 97.0079 20.7497 97.6609 20.0718C98.3139 19.3939 99.074 18.878 99.9413 18.5241C100.809 18.1702 101.748 17.9933 102.76 17.9933C103.627 17.9933 104.435 18.1204 105.183 18.3746C105.93 18.6238 106.593 18.9777 107.171 19.4363C107.754 19.8948 108.231 20.4407 108.599 21.0737C108.968 21.7017 109.205 22.3946 109.31 23.1522H106.02ZM111.824 33.515V22.0307H114.912V24.0345H115.031C115.241 23.3217 115.592 22.7834 116.085 22.4195C116.579 22.0506 117.147 21.8662 117.79 21.8662C117.95 21.8662 118.122 21.8762 118.306 21.8961C118.49 21.9161 118.652 21.9435 118.792 21.9784V24.8046C118.642 24.7597 118.436 24.7198 118.171 24.6849C117.907 24.65 117.666 24.6326 117.446 24.6326C116.978 24.6326 116.559 24.7348 116.19 24.9391C115.826 25.1385 115.537 25.4177 115.323 25.7765C115.113 26.1354 115.009 26.5491 115.009 27.0177V33.515H111.824ZM125.093 33.7393C123.932 33.7393 122.927 33.4925 122.08 32.9991C121.238 32.5006 120.587 31.8078 120.128 30.9205C119.67 30.0283 119.441 28.994 119.441 27.8177C119.441 26.6314 119.67 25.5946 120.128 24.7074C120.587 23.8151 121.238 23.1223 122.08 22.6288C122.927 22.1304 123.932 21.8812 125.093 21.8812C126.254 21.8812 127.256 22.1304 128.099 22.6288C128.946 23.1223 129.599 23.8151 130.058 24.7074C130.516 25.5946 130.745 26.6314 130.745 27.8177C130.745 28.994 130.516 30.0283 130.058 30.9205C129.599 31.8078 128.946 32.5006 128.099 32.9991C127.256 33.4925 126.254 33.7393 125.093 33.7393ZM125.108 31.2719C125.636 31.2719 126.077 31.1224 126.431 30.8233C126.785 30.5193 127.052 30.1056 127.231 29.5822C127.416 29.0588 127.508 28.4632 127.508 27.7953C127.508 27.1273 127.416 26.5317 127.231 26.0083C127.052 25.4849 126.785 25.0712 126.431 24.7672C126.077 24.4631 125.636 24.3111 125.108 24.3111C124.575 24.3111 124.126 24.4631 123.762 24.7672C123.403 25.0712 123.132 25.4849 122.947 26.0083C122.768 26.5317 122.678 27.1273 122.678 27.7953C122.678 28.4632 122.768 29.0588 122.947 29.5822C123.132 30.1056 123.403 30.5193 123.762 30.8233C124.126 31.1224 124.575 31.2719 125.108 31.2719ZM138.005 33.7393C136.829 33.7393 135.817 33.49 134.97 32.9916C134.127 32.4881 133.479 31.7903 133.026 30.8981C132.577 30.0059 132.353 28.9791 132.353 27.8177C132.353 26.6413 132.58 25.6096 133.033 24.7223C133.492 23.8301 134.142 23.1348 134.985 22.6363C135.827 22.1329 136.829 21.8812 137.99 21.8812C138.992 21.8812 139.87 22.0631 140.622 22.427C141.375 22.7908 141.97 23.3017 142.409 23.9597C142.848 24.6176 143.09 25.3902 143.134 26.2775H140.129C140.044 25.7043 139.82 25.2432 139.456 24.8943C139.097 24.5404 138.626 24.3634 138.043 24.3634C137.549 24.3634 137.118 24.498 136.749 24.7672C136.385 25.0314 136.101 25.4177 135.897 25.9261C135.693 26.4345 135.59 27.0501 135.59 27.7728C135.59 28.5055 135.69 29.1286 135.889 29.642C136.094 30.1554 136.38 30.5467 136.749 30.8159C137.118 31.085 137.549 31.2196 138.043 31.2196C138.407 31.2196 138.733 31.1448 139.022 30.9953C139.316 30.8458 139.558 30.6289 139.747 30.3448C139.942 30.0557 140.069 29.7093 140.129 29.3056H143.134C143.085 30.1828 142.845 30.9554 142.417 31.6233C141.993 32.2863 141.407 32.8047 140.66 33.1785C139.912 33.5523 139.027 33.7393 138.005 33.7393ZM150.407 33.7393C149.226 33.7393 148.209 33.5 147.357 33.0215C146.509 32.538 145.857 31.8551 145.398 30.9729C144.939 30.0856 144.71 29.0364 144.71 27.8252C144.71 26.6438 144.939 25.6071 145.398 24.7148C145.857 23.8226 146.502 23.1273 147.334 22.6288C148.172 22.1304 149.154 21.8812 150.28 21.8812C151.038 21.8812 151.743 22.0033 152.396 22.2475C153.054 22.4868 153.627 22.8482 154.116 23.3317C154.609 23.8151 154.993 24.4233 155.267 25.156C155.541 25.8837 155.678 26.7361 155.678 27.713V28.5878H145.981V26.6139H152.68C152.68 26.1554 152.581 25.7491 152.381 25.3952C152.182 25.0413 151.905 24.7647 151.551 24.5653C151.202 24.3609 150.796 24.2588 150.333 24.2588C149.849 24.2588 149.42 24.3709 149.047 24.5952C148.678 24.8145 148.389 25.1111 148.179 25.4849C147.97 25.8538 147.863 26.265 147.858 26.7186V28.5953C147.858 29.1635 147.962 29.6545 148.172 30.0682C148.386 30.4819 148.688 30.8009 149.076 31.0252C149.465 31.2495 149.926 31.3617 150.46 31.3617C150.814 31.3617 151.138 31.3118 151.432 31.2121C151.726 31.1124 151.977 30.9629 152.187 30.7635C152.396 30.5641 152.556 30.3199 152.665 30.0308L155.611 30.2252C155.462 30.933 155.155 31.5511 154.692 32.0794C154.233 32.6028 153.64 33.0115 152.912 33.3056C152.189 33.5947 151.354 33.7393 150.407 33.7393ZM157.757 33.515V22.0307H160.845V24.0345H160.964C161.174 23.3217 161.525 22.7834 162.019 22.4195C162.512 22.0506 163.08 21.8662 163.723 21.8662C163.883 21.8662 164.055 21.8762 164.239 21.8961C164.424 21.9161 164.586 21.9435 164.725 21.9784V24.8046C164.576 24.7597 164.369 24.7198 164.105 24.6849C163.841 24.65 163.599 24.6326 163.379 24.6326C162.911 24.6326 162.492 24.7348 162.123 24.9391C161.76 25.1385 161.47 25.4177 161.256 25.7765C161.047 26.1354 160.942 26.5491 160.942 27.0177V33.515H157.757Z" fill="#0D4D07"/>
<path d="M28.8564 56C44.3204 56 56.8564 43.464 56.8564 28C56.8564 12.536 44.3204 0 28.8564 0C13.3925 0 0.856445 12.536 0.856445 28C0.856445 43.464 13.3925 56 28.8564 56Z" fill="#0D4D07"/>
<path fill-rule="evenodd" clip-rule="evenodd" d="M48.0333 40.6234L43.3036 22.973C36.8205 24.71 31.138 26.2326 24.6547 27.9698L32.3229 35.6258L37.1457 34.3336L34.0427 31.2425L39.4137 29.8037L41.275 36.7499C37.1014 37.8684 32.9278 38.9866 28.7542 40.1049C26.4931 40.7107 24.0496 40.4745 21.8959 39.5844C19.9225 38.7681 18.068 37.3378 17.0662 35.4195C16.6545 34.6308 16.3284 33.8004 16.0979 32.941C15.4869 30.6601 15.5921 28.2688 16.4774 26.0708C17.6713 23.1072 20.1635 21.0067 23.2353 20.1836L52.0808 12.3552C50.9306 10.6509 49.597 9.08048 48.1097 7.67142L22.3031 14.6766C17.6431 15.9255 13.8304 18.772 11.7097 23.1507C10.043 26.5903 9.75473 30.481 10.7404 34.1591C10.8632 34.6177 11.0123 35.0689 11.1743 35.5152C12.7583 39.8835 16.1021 43.1348 20.4208 44.798C24.2211 46.261 28.3475 45.8977 32.2048 44.8645L48.0327 40.6232L48.0333 40.6234Z" fill="#71C90C"/>
</svg>
